<svg xmlns="http://www.w3.org/2000/svg"
     viewBox="0 0 512 512"><!--! Font Awesome Pro 6.1.1 by @fontawesome - https://fontawesome.com License - https://fontawesome.com/license (Commercial License) Copyright 2022 Fonticons, Inc. -->
    <path fill="#3b82f6" d="M493.6 163c-24.88-19.62-45.5-35.37-164.3-121.6C312.7 29.21 279.7 0 256.4 0H255.6C232.3 0 199.3 29.21 182.6 41.38C63.88 127.6 43.25 143.4 18.38 163C6.75 172 0 186 0 200.8v263.2C0 490.5 21.49 512 48 512h416c26.51 0 48-21.49 48-47.1V200.8C512 186 505.3 172 493.6 163zM480 464c0 8.822-7.178 16-16 16h-416C39.18 480 32 472.8 32 464V200.8c0-4.902 2.23-9.555 6.195-12.63C61.59 169.7 80.71 154.1 201.5 67.21c2.98-2.178 6.451-4.861 10.28-7.826c9.365-7.254 34.18-26.48 44.62-27.37c9.686 .9551 34.44 20.13 43.79 27.37c3.828 2.965 7.299 5.648 10.36 7.887c120.7 87.68 139.8 102.4 163.5 121C477.8 191.2 480 195.8 480 200.8V464zM422.5 259.1l-132.8 97.72c-19.78 14.62-47.64 14.62-67.45 0L89.48 259.1C82.38 253.8 72.33 255.4 67.11 262.5C61.88 269.6 63.41 279.7 70.52 284.9l132.8 97.72C218.7 393.1 236.9 399.1 256 399.1s37.3-6.023 52.7-17.4l132.8-97.72c7.109-5.219 8.641-15.25 3.406-22.34C439.6 255.4 429.7 253.8 422.5 259.1z"/>
    d="M240 144C240 135.2 247.2 128 256 128C264.8 128 272 135.2 272 144V272C272 280.8 264.8 288 256 288C247.2 288 240
    280.8 240 272V144zM280 352C280 365.3 269.3 376 256 376C242.7 376 232 365.3 232 352C232 338.7 242.7 328 256 328C269.3
    328 280 338.7 280 352zM64 176V112C64 85.49 85.49 64 112 64H175.1L222.1 17.94C240.8-.8035 271.2-.8035 289.9 17.94L336
    64H400C426.5 64 448 85.49 448 112V176L493.6 221.6C512.3 240.3 512.3 270.7 493.6 289.5L448 335.1V400C448 426.5 426.5
    448 400 448H335.1L289.9 493.1C271.2 511.9 240.8 511.9 222.1 493.1L176.9 448H112C85.49 448 64 426.5 64
    400V335.1L18.41 289.5C-.3328 270.7-.3328 240.3 18.41 221.6L64 176zM112 96C103.2 96 96 103.2 96 112V176C96 184.5
    92.63 192.6 86.63 198.6L41.04 244.2C34.79 250.5 34.79 260.6 41.04 266.8L86.63 312.4C92.63 318.4 96 326.6 96
    335.1V400C96 408.8 103.2 416 112 416H176.9C185.4 416 193.6 419.4 199.6 425.4L244.7 470.5C250.9 476.7 261.1 476.7
    267.3 470.5L312.4 425.4C318.4 419.4 326.6 416 335.1 416H400C408.8 416 416 408.8 416 400V335.1C416 326.6 419.4 318.4
    425.4 312.4L470.1 266.8C477.2 260.6 477.2 250.5 470.1 244.2L425.4 198.6C419.4 192.6 416 184.5 416 176V112C416 103.2
    408.8 96 400 96H336C327.5 96 319.4 92.63 313.4 86.63L267.3 40.57C261.1 34.32 250.9 34.32 244.7 40.57L198.6
    86.63C192.6 92.63 184.5 96 175.1 96L112 96zM18.41 289.5L41.04 266.8z"/>
    <path fill="#fb923c" transform="translate(153, 100) scale(0.4) "
          d="M240 144C240 135.2 247.2 128 256 128C264.8 128 272 135.2 272 144V272C272 280.8 264.8 288 256 288C247.2 288 240 280.8 240 272V144zM280 352C280 365.3 269.3 376 256 376C242.7 376 232 365.3 232 352C232 338.7 242.7 328 256 328C269.3 328 280 338.7 280 352zM64 176V112C64 85.49 85.49 64 112 64H175.1L222.1 17.94C240.8-.8035 271.2-.8035 289.9 17.94L336 64H400C426.5 64 448 85.49 448 112V176L493.6 221.6C512.3 240.3 512.3 270.7 493.6 289.5L448 335.1V400C448 426.5 426.5 448 400 448H335.1L289.9 493.1C271.2 511.9 240.8 511.9 222.1 493.1L176.9 448H112C85.49 448 64 426.5 64 400V335.1L18.41 289.5C-.3328 270.7-.3328 240.3 18.41 221.6L64 176zM112 96C103.2 96 96 103.2 96 112V176C96 184.5 92.63 192.6 86.63 198.6L41.04 244.2C34.79 250.5 34.79 260.6 41.04 266.8L86.63 312.4C92.63 318.4 96 326.6 96 335.1V400C96 408.8 103.2 416 112 416H176.9C185.4 416 193.6 419.4 199.6 425.4L244.7 470.5C250.9 476.7 261.1 476.7 267.3 470.5L312.4 425.4C318.4 419.4 326.6 416 335.1 416H400C408.8 416 416 408.8 416 400V335.1C416 326.6 419.4 318.4 425.4 312.4L470.1 266.8C477.2 260.6 477.2 250.5 470.1 244.2L425.4 198.6C419.4 192.6 416 184.5 416 176V112C416 103.2 408.8 96 400 96H336C327.5 96 319.4 92.63 313.4 86.63L267.3 40.57C261.1 34.32 250.9 34.32 244.7 40.57L198.6 86.63C192.6 92.63 184.5 96 175.1 96L112 96zM18.41 289.5L41.04 266.8z"/>

</svg>
